#!OML:ASF E:\Steps\Project 1\Capture day 1\Session 2\Subject.ASF
:FULLY-SPECIFIED
:DEGREES
42
root -0.863981 17.974 20.934 -154.312 -3.09154 177.727
lowerback -27.2664 -2.77912 -7.05534
upperback 0.388011 -1.74698 -0.0726457
thorax 15.2039 -1.44847 3.07632
lowerneck 3.05674 0.0706193 -1.82421
upperneck 14.6896 -2.0136 6.51499
head 4.42591 -1.35135 2.44817
rclavicle 3.57812e-015 3.97569e-015
rhumerus -37.9016 -18.6277 -76.9899
rradius 33.9114
rwrist 0.232067
rhand -10.3778 -55.6609
rfingers 7.12502
rthumb 15.6198 -85.0503
lclavicle 3.57812e-015 3.97569e-015
lhumerus -30.5893 4.0527 81.433
lradius 26.8543
lwrist -2.42391
lhand -22.9357 -13.3882
lfingers 7.12502
lthumb 3.50521 16.5627
rfemur -22.5798 4.50551 20.2391
rtibia 4.85445
rfoot -17.0066 -3.42386
rtoes -14.6135
lfemur -23.677 -9.07603 -21.2271
ltibia 7.06852
lfoot -5.3343 -4.09914
ltoes -15.9391
43
root -0.863346 17.974 20.9309 -154.356 -3.07393 177.756
lowerback -27.256 -2.76657 -7.05526
upperback 0.406929 -1.72672 -0.0844691
thorax 15.2185 -1.43903 3.07155
lowerneck 3.0073 0.0650458 -1.73146
upperneck 14.7307 -2.01991 6.46335
head 4.44838 -1.35074 2.41342
rclavicle -6.95746e-016 4.77083e-015
rhumerus -37.8492 -18.6006 -77.0706
rradius 33.9295
rwrist 0.199745
rhand -10.3558 -55.84
rfingers 7.12502
rthumb 15.641 -85.2277
lclavicle -6.95746e-016 4.77083e-015
lhumerus -30.5123 4.00095 81.4863
lradius 27.1809
lwrist -2.44907
lhand -22.9213 -13.2371
lfingers 7.12502
lthumb 3.51906 16.7136
rfemur -22.5091 4.62302 20.2384
rtibia 4.82528
rfoot -16.9944 -3.42043
rtoes -14.2475
lfemur -23.6187 -9.14818 -21.177
ltibia 7.09495
lfoot -5.32758 -3.98439
ltoes -15.185
44
root -0.861921 17.974 20.9291 -154.371 -3.07419 177.755
lowerback -27.267 -2.77702 -7.07069
upperback 0.431752 -1.73038 -0.0917265
thorax 15.2536 -1.4421 3.07016
lowerneck 2.82303 0.0504331 -1.75265
upperneck 15.204 -2.09328 6.65428
head 4.1495 -1.34767 2.24091
rclavicle 2.48481e-015 -1.98785e-015
rhumerus -37.7745 -18.5078 -77.1575
rradius 33.936
rwrist 0.140832
rhand -10.4251 -55.9205
rfingers 7.12502
rthumb 15.5742 -85.3135
lclavicle 2.48481e-015 -1.98785e-015
lhumerus -30.4271 3.90419 81.5547
lradius 27.4795
lwrist -2.19165
lhand -23.0172 -13.2114
lfingers 7.12502
lthumb 3.42653 16.7408
rfemur -22.4681 4.7891 20.2145
rtibia 4.79257
rfoot -16.9764 -3.52783
rtoes -14.0367
lfemur -23.5927 -9.14926 -21.1762
ltibia 7.11286
lfoot -5.31392 -3.98153
ltoes -14.4649
45
root -0.86142 17.9737 20.9269 -154.402 -3.08213 177.717
lowerback -27.2657 -2.7808 -7.11448
upperback 0.438248 -1.71692 -0.12383
thorax 15.2584 -1.43865 3.06386
lowerneck 3.02823 0.0904019 -1.67746
upperneck 14.7166 -1.98363 6.4546
head 4.43622 -1.33088 2.40118
rclavicle 1.12313e-014 -2.18663e-014
rhumerus -37.8171 -18.4551 -77.2133
rradius 33.9659
rwrist -0.0103912
rhand -10.4678 -55.832
rfingers 7.12502
rthumb 15.5332 -85.2281
lclavicle 1.12313e-014 -2.18663e-014
lhumerus -30.3853 3.6893 81.6003
lradius 27.7472
lwrist -2.02989
lhand -23.0278 -13.164
lfingers 7.12502
lthumb 3.4163 16.7884
rfemur -22.3838 4.9624 20.134
rtibia 4.72997
rfoot -17.0245 -3.7154
rtoes -13.7084
lfemur -23.5395 -9.08278 -21.2503
ltibia 7.09289
lfoot -5.31378 -4.06046
ltoes -14.5665
46
root -0.861564 17.9731 20.9264 -154.398 -3.0704 177.692
lowerback -27.2438 -2.76014 -7.14144
upperback 0.391904 -1.68445 -0.169711
thorax 15.1878 -1.42419 3.0413
lowerneck 3.19303 0.165852 -1.56636
upperneck 14.6891 -1.87845 6.38778
head 4.38567 -1.28192 2.35928
rclavicle -2.5842e-015 7.95139e-015
rhumerus -37.9309 -18.3689 -77.2911
rradius 34.0139
rwrist -0.136915
rhand -10.3511 -55.8715
rfingers 7.12502
rthumb 15.6456 -85.2588
lclavicle -2.5842e-015 7.95139e-015
lhumerus -30.3889 3.36939 81.6517
lradius 27.9858
lwrist -1.93085
lhand -22.9899 -13.0928
lfingers 7.12502
lthumb 3.45282 16.859
rfemur -22.3989 4.81377 20.1213
rtibia 4.77079
rfoot -17.0927 -3.55124
rtoes -13.6488
lfemur -23.5418 -9.0585 -21.286
ltibia 7.07812
lfoot -5.21549 -4.08325
ltoes -13.4684
47
root -0.861141 17.9727 20.927 -154.352 -3.05269 177.653
lowerback -27.2491 -2.74621 -7.18657
upperback 0.381654 -1.65039 -0.193717
thorax 15.1742 -1.41188 3.05245
lowerneck 3.10055 0.186168 -1.54194
upperneck 14.7317 -1.84122 6.33261
head 4.41571 -1.26022 2.33745
rclavicle 1.44119e-014 7.15625e-015
rhumerus -37.9068 -18.2965 -77.3757
rradius 34.0398
rwrist -0.132735
rhand -10.2895 -56.0523
rfingers 7.12502
rthumb 15.7048 -85.4351
lclavicle 1.44119e-014 7.15625e-015
lhumerus -30.2888 3.11802 81.7608
lradius 28.1638
lwrist -1.66444
lhand -23.04 -13.2163
lfingers 7.12502
lthumb 3.4045 16.7362
rfemur -22.4932 4.52094 20.1506
rtibia 4.84952
rfoot -17.1096 -3.33662
rtoes -14.4985
lfemur -23.6046 -9.02988 -21.3301
ltibia 7.11083
lfoot -5.16845 -4.13677
ltoes -13.3161
48
root -0.860935 17.9728 20.9269 -154.328 -3.04777 177.631
lowerback -27.2658 -2.76237 -7.21797
upperback 0.406137 -1.65805 -0.184942
thorax 15.2129 -1.41857 3.0756
lowerneck 2.94947 0.19532 -1.60103
upperneck 14.7561 -1.81724 6.32634
head 4.45334 -1.24451 2.34778
rclavicle 2.20651e-014 2.5842e-014
rhumerus -37.8529 -18.2185 -77.4527
rradius 34.1138
rwrist -0.0527145
rhand -10.2146 -56.1639
rfingers 7.12502
rthumb 15.777 -85.5409
lclavicle 2.20651e-014 2.5842e-014
lhumerus -30.1847 2.99298 81.8869
lradius 28.3627
lwrist -1.57177
lhand -23.1074 -13.2922
lfingers 7.12502
lthumb 3.3394 16.6613
rfemur -22.5162 4.58808 20.1136
rtibia 4.84072
rfoot -17.0957 -3.46765
rtoes -14.4712
lfemur -23.6394 -9.00524 -21.3592
ltibia 7.11907
lfoot -5.26357 -4.20432
ltoes -13.477
49
root -0.861466 17.9751 20.9273 -154.327 -3.05088 177.708
lowerback -27.241 -2.75816 -7.13138
upperback 0.387336 -1.68674 -0.163047
thorax 15.1815 -1.42455 3.04236
lowerneck 2.95613 0.220475 -1.65534
upperneck 14.7632 -1.78928 6.36123
head 4.45468 -1.23327 2.37081
rclavicle 2.03754e-014 -3.81667e-014
rhumerus -37.8739 -18.1477 -77.5213
rradius 34.1638
rwrist 0.113739
rhand -10.1371 -56.2031
rfingers 7.12502
rthumb 15.8517 -85.5742
lclavicle 2.03754e-014 -3.81667e-014
lhumerus -30.1881 2.90243 81.9632
lradius 28.6324
lwrist -1.58622
lhand -23.137 -13.3057
lfingers 7.12502
lthumb 3.31077 16.6484
rfemur -22.522 4.75282 20.1626
rtibia 4.83157
rfoot -17.0707 -3.59515
rtoes -14.2403
lfemur -23.6475 -9.00231 -21.256
ltibia 7.08747
lfoot -5.33337 -4.18777
ltoes -12.924
50
root -0.861611 17.9764 20.928 -154.305 -3.04736 177.747
lowerback -27.2248 -2.74638 -7.09683
upperback 0.355735 -1.6885 -0.158528
thorax 15.1361 -1.4222 3.02841
lowerneck 3.00168 0.238657 -1.68085
upperneck 14.7419 -1.76634 6.38262
head 4.43763 -1.22396 2.38316
rclavicle 2.68359e-015 1.39149e-014
rhumerus -37.8703 -18.1239 -77.5554
rradius 34.1328
rwrist 0.221676
rhand -10.2841 -56.1539
rfingers 7.12502
rthumb 15.71 -85.5362
lclavicle 2.68359e-015 1.39149e-014
lhumerus -30.169 2.79596 82.0113
lradius 28.9012
lwrist -1.34346
lhand -23.1574 -13.4046
lfingers 7.12502
lthumb 3.2911 16.5498
rfemur -22.5507 4.81047 20.2085
rtibia 4.84069
rfoot -17.0353 -3.66845
rtoes -14.9513
lfemur -23.6772 -9.00219 -21.2019
ltibia 7.09042
lfoot -5.28341 -4.14309
ltoes -14.291
51
root -0.862531 17.9745 20.9279 -154.264 -3.00141 177.686
lowerback -27.267 -2.73136 -7.17109
upperback 0.341533 -1.64137 -0.191429
thorax 15.1343 -1.40685 3.04948
lowerneck 3.15674 0.210057 -1.60517
upperneck 14.6145 -1.78532 6.32826
head 4.35963 -1.23316 2.34749
rclavicle 1.41137e-014 4.41302e-014
rhumerus -37.911 -18.1444 -77.5705
rradius 34.1542
rwrist 0.169452
rhand -10.5254 -56.0744
rfingers 7.12502
rthumb 15.4776 -85.4748
lclavicle 1.41137e-014 4.41302e-014
lhumerus -30.0613 2.64753 82.0644
lradius 29.0191
lwrist -1.13409
lhand -23.1121 -13.493
lfingers 7.12502
lthumb 3.33485 16.4607
rfemur -22.5869 4.87139 20.1074
rtibia 4.8487
rfoot -17.0576 -3.66163
rtoes -14.6637
lfemur -23.7111 -9.07892 -21.2716
ltibia 7.09258
lfoot -5.20922 -4.07489
ltoes -15.3338
